<mxfile host="app.diagrams.net" modified="2022-09-15T17:34:11.875Z" agent="5.0 (Windows NT 10.0; Win64; x64) AppleWebKit/537.36 (KHTML, like Gecko) Chrome/105.0.0.0 Safari/537.36 Edg/105.0.1343.33" etag="Yx8ENi8zsVy_vACtCunH" version="20.3.1" type="github">
  <diagram id="h-TfsBkK5ScuGBxxxNuB" name="Page-1">
    <mxGraphModel dx="6040" dy="3350" grid="0" gridSize="10" guides="1" tooltips="1" connect="1" arrows="1" fold="1" page="1" pageScale="1" pageWidth="850" pageHeight="1100" math="0" shadow="0">
      <root>
        <mxCell id="0" />
        <mxCell id="1" parent="0" />
        <mxCell id="oeZGJ2RFQvOxTjoHCAVU-149" value="CAPA DE FUNCIONALIDADES - JOURNEY" style="swimlane;horizontal=0;fontSize=13;fontColor=#000000;fillColor=none;gradientColor=default;" vertex="1" parent="1">
          <mxGeometry x="-963" y="-314" width="2768" height="517" as="geometry" />
        </mxCell>
        <mxCell id="T4qnCPvLXyjho5-2VheC-4" value="SI" style="edgeStyle=orthogonalEdgeStyle;rounded=0;orthogonalLoop=1;jettySize=auto;html=1;entryX=0;entryY=0.5;entryDx=0;entryDy=0;" parent="oeZGJ2RFQvOxTjoHCAVU-149" source="oeZGJ2RFQvOxTjoHCAVU-153" target="oeZGJ2RFQvOxTjoHCAVU-27" edge="1">
          <mxGeometry relative="1" as="geometry">
            <mxPoint x="1256" y="212" as="targetPoint" />
            <mxPoint x="321" y="164.5" as="sourcePoint" />
          </mxGeometry>
        </mxCell>
        <mxCell id="oeZGJ2RFQvOxTjoHCAVU-17" value="" style="edgeStyle=elbowEdgeStyle;rounded=0;orthogonalLoop=1;jettySize=auto;html=1;fontSize=12;fontColor=#006600;exitX=0.5;exitY=0;exitDx=0;exitDy=0;" edge="1" parent="oeZGJ2RFQvOxTjoHCAVU-149" source="oeZGJ2RFQvOxTjoHCAVU-3">
          <mxGeometry relative="1" as="geometry">
            <mxPoint x="975" y="149" as="targetPoint" />
          </mxGeometry>
        </mxCell>
        <mxCell id="oeZGJ2RFQvOxTjoHCAVU-10" value="" style="whiteSpace=wrap;html=1;fontColor=#006600;" vertex="1" parent="oeZGJ2RFQvOxTjoHCAVU-149">
          <mxGeometry x="950" y="234" width="120" height="60" as="geometry" />
        </mxCell>
        <mxCell id="oeZGJ2RFQvOxTjoHCAVU-12" value="" style="rounded=0;whiteSpace=wrap;html=1;fontSize=12;fontColor=#006600;" vertex="1" parent="oeZGJ2RFQvOxTjoHCAVU-149">
          <mxGeometry x="760" y="89" width="120" height="60" as="geometry" />
        </mxCell>
        <mxCell id="oeZGJ2RFQvOxTjoHCAVU-14" value="Autenticacion mediante usuario y contrasena" style="rounded=0;whiteSpace=wrap;html=1;fontSize=12;fontColor=#000000;" vertex="1" parent="oeZGJ2RFQvOxTjoHCAVU-149">
          <mxGeometry x="298" y="253" width="120" height="60" as="geometry" />
        </mxCell>
        <mxCell id="oeZGJ2RFQvOxTjoHCAVU-18" value="" style="whiteSpace=wrap;html=1;fontColor=#006600;" vertex="1" parent="oeZGJ2RFQvOxTjoHCAVU-149">
          <mxGeometry x="950" y="359" width="120" height="60" as="geometry" />
        </mxCell>
        <mxCell id="oeZGJ2RFQvOxTjoHCAVU-26" value="" style="group" vertex="1" connectable="0" parent="oeZGJ2RFQvOxTjoHCAVU-149">
          <mxGeometry x="835" y="224" width="80" height="80" as="geometry" />
        </mxCell>
        <mxCell id="oeZGJ2RFQvOxTjoHCAVU-3" value="" style="rhombus;whiteSpace=wrap;html=1;fontSize=12;fontColor=#006600;" vertex="1" parent="oeZGJ2RFQvOxTjoHCAVU-26">
          <mxGeometry width="80" height="80" as="geometry" />
        </mxCell>
        <mxCell id="oeZGJ2RFQvOxTjoHCAVU-25" value="" style="ellipse;whiteSpace=wrap;html=1;aspect=fixed;fontSize=12;fontColor=#006600;" vertex="1" parent="oeZGJ2RFQvOxTjoHCAVU-26">
          <mxGeometry x="25" y="25" width="30" height="30" as="geometry" />
        </mxCell>
        <mxCell id="oeZGJ2RFQvOxTjoHCAVU-11" value="" style="edgeStyle=elbowEdgeStyle;rounded=0;orthogonalLoop=1;jettySize=auto;html=1;fontSize=12;fontColor=#006600;" edge="1" parent="oeZGJ2RFQvOxTjoHCAVU-149" source="oeZGJ2RFQvOxTjoHCAVU-3" target="oeZGJ2RFQvOxTjoHCAVU-10">
          <mxGeometry relative="1" as="geometry" />
        </mxCell>
        <mxCell id="oeZGJ2RFQvOxTjoHCAVU-19" value="" style="edgeStyle=elbowEdgeStyle;rounded=0;orthogonalLoop=1;jettySize=auto;html=1;fontSize=12;fontColor=#006600;exitX=0.5;exitY=1;exitDx=0;exitDy=0;" edge="1" parent="oeZGJ2RFQvOxTjoHCAVU-149" source="oeZGJ2RFQvOxTjoHCAVU-3" target="oeZGJ2RFQvOxTjoHCAVU-18">
          <mxGeometry relative="1" as="geometry" />
        </mxCell>
        <mxCell id="oeZGJ2RFQvOxTjoHCAVU-28" value="" style="edgeStyle=elbowEdgeStyle;rounded=0;orthogonalLoop=1;jettySize=auto;html=1;fontSize=12;fontColor=#006600;" edge="1" parent="oeZGJ2RFQvOxTjoHCAVU-149" source="oeZGJ2RFQvOxTjoHCAVU-27" target="oeZGJ2RFQvOxTjoHCAVU-14">
          <mxGeometry relative="1" as="geometry" />
        </mxCell>
        <mxCell id="oeZGJ2RFQvOxTjoHCAVU-27" value="Enrolamiento" style="shape=process;whiteSpace=wrap;html=1;backgroundOutline=1;fontSize=12;fontColor=#000000;" vertex="1" parent="oeZGJ2RFQvOxTjoHCAVU-149">
          <mxGeometry x="295" y="131" width="120" height="60" as="geometry" />
        </mxCell>
        <mxCell id="oeZGJ2RFQvOxTjoHCAVU-154" value="" style="edgeStyle=elbowEdgeStyle;rounded=0;orthogonalLoop=1;jettySize=auto;html=1;fontSize=12;fontColor=#000000;exitX=1;exitY=0.5;exitDx=0;exitDy=0;" edge="1" parent="oeZGJ2RFQvOxTjoHCAVU-149" source="oeZGJ2RFQvOxTjoHCAVU-179" target="oeZGJ2RFQvOxTjoHCAVU-153">
          <mxGeometry relative="1" as="geometry">
            <mxPoint x="95" y="161" as="sourcePoint" />
          </mxGeometry>
        </mxCell>
        <mxCell id="oeZGJ2RFQvOxTjoHCAVU-177" value="NO" style="edgeStyle=elbowEdgeStyle;rounded=0;orthogonalLoop=1;jettySize=auto;html=1;fontSize=12;fontColor=#000000;" edge="1" parent="oeZGJ2RFQvOxTjoHCAVU-149" source="oeZGJ2RFQvOxTjoHCAVU-153" target="oeZGJ2RFQvOxTjoHCAVU-176">
          <mxGeometry relative="1" as="geometry" />
        </mxCell>
        <mxCell id="oeZGJ2RFQvOxTjoHCAVU-153" value="Conexion a internet" style="rhombus;whiteSpace=wrap;html=1;fontSize=12;fontColor=#000000;fillColor=none;gradientColor=default;" vertex="1" parent="oeZGJ2RFQvOxTjoHCAVU-149">
          <mxGeometry x="150" y="121" width="80" height="80" as="geometry" />
        </mxCell>
        <mxCell id="oeZGJ2RFQvOxTjoHCAVU-176" value="FIN" style="ellipse;whiteSpace=wrap;html=1;aspect=fixed;fontSize=12;fontColor=#000000;fillColor=#000000;gradientColor=#000000;" vertex="1" parent="oeZGJ2RFQvOxTjoHCAVU-149">
          <mxGeometry x="167.5" y="291" width="45" height="45" as="geometry" />
        </mxCell>
        <mxCell id="oeZGJ2RFQvOxTjoHCAVU-179" value="" style="ellipse;whiteSpace=wrap;html=1;aspect=fixed;fontSize=12;fontColor=#000000;fillColor=none;gradientColor=default;" vertex="1" parent="oeZGJ2RFQvOxTjoHCAVU-149">
          <mxGeometry x="47" y="134.5" width="53" height="53" as="geometry" />
        </mxCell>
        <mxCell id="oeZGJ2RFQvOxTjoHCAVU-216" value="Mostrar Posicion Consolidada" style="rounded=0;whiteSpace=wrap;html=1;fontSize=11;fontColor=#000000;fillColor=none;gradientColor=#000000;" vertex="1" parent="oeZGJ2RFQvOxTjoHCAVU-149">
          <mxGeometry x="542" y="257" width="120" height="60" as="geometry" />
        </mxCell>
        <mxCell id="oeZGJ2RFQvOxTjoHCAVU-150" value="CAPA DE DATOS Y SERVICIOS" style="swimlane;horizontal=0;fontSize=13;fontColor=#000000;fillColor=none;gradientColor=default;" vertex="1" parent="1">
          <mxGeometry x="-965" y="620" width="2760" height="562" as="geometry" />
        </mxCell>
        <mxCell id="oeZGJ2RFQvOxTjoHCAVU-145" value="&lt;h1 style=&quot;font-size: 12px;&quot;&gt;&lt;br&gt;&lt;/h1&gt;" style="text;html=1;strokeColor=none;fillColor=none;spacing=5;spacingTop=-20;whiteSpace=wrap;overflow=hidden;rounded=0;fontSize=12;fontColor=#0000FF;" vertex="1" parent="oeZGJ2RFQvOxTjoHCAVU-150">
          <mxGeometry x="129" y="384" width="135" height="80" as="geometry" />
        </mxCell>
        <mxCell id="oeZGJ2RFQvOxTjoHCAVU-199" value="CAPA FRONT: VALIDACIONES" style="swimlane;horizontal=0;fontSize=13;fontColor=#000000;fillColor=none;gradientColor=#000000;" vertex="1" parent="1">
          <mxGeometry x="-963" y="228" width="2715" height="382" as="geometry" />
        </mxCell>
        <mxCell id="oeZGJ2RFQvOxTjoHCAVU-190" value="&lt;h1 style=&quot;font-size: 11px;&quot;&gt;Validaciones:&lt;/h1&gt;&lt;div style=&quot;font-size: 11px;&quot;&gt;Nomenclatura&lt;/div&gt;&lt;div style=&quot;font-size: 11px;&quot;&gt;Usuario existente&lt;/div&gt;&lt;div style=&quot;font-size: 11px;&quot;&gt;&lt;br style=&quot;font-size: 11px;&quot;&gt;&lt;/div&gt;" style="text;html=1;strokeColor=none;fillColor=none;spacing=5;spacingTop=-20;whiteSpace=wrap;overflow=hidden;rounded=0;fontSize=11;fontColor=#000000;" vertex="1" parent="oeZGJ2RFQvOxTjoHCAVU-199">
          <mxGeometry x="104" y="81" width="125" height="68" as="geometry" />
        </mxCell>
        <mxCell id="oeZGJ2RFQvOxTjoHCAVU-182" value="Ingreso Usuario" style="shape=parallelogram;perimeter=parallelogramPerimeter;whiteSpace=wrap;html=1;fixedSize=1;fontSize=12;fontColor=#000000;fillColor=none;gradientColor=#000000;" vertex="1" parent="oeZGJ2RFQvOxTjoHCAVU-199">
          <mxGeometry x="174" y="123" width="120" height="60" as="geometry" />
        </mxCell>
        <mxCell id="oeZGJ2RFQvOxTjoHCAVU-187" value="" style="edgeStyle=elbowEdgeStyle;rounded=0;orthogonalLoop=1;jettySize=auto;html=1;fontSize=12;fontColor=#000000;entryX=0.5;entryY=0;entryDx=0;entryDy=0;exitX=0;exitY=0.5;exitDx=0;exitDy=0;" edge="1" parent="oeZGJ2RFQvOxTjoHCAVU-199" source="oeZGJ2RFQvOxTjoHCAVU-183" target="oeZGJ2RFQvOxTjoHCAVU-182">
          <mxGeometry relative="1" as="geometry">
            <mxPoint x="195" y="73" as="targetPoint" />
            <Array as="points">
              <mxPoint x="231" y="87" />
            </Array>
          </mxGeometry>
        </mxCell>
        <mxCell id="oeZGJ2RFQvOxTjoHCAVU-183" value="Validaciones" style="rhombus;whiteSpace=wrap;html=1;fontSize=12;fontColor=#000000;fillColor=none;gradientColor=#000000;" vertex="1" parent="oeZGJ2RFQvOxTjoHCAVU-199">
          <mxGeometry x="315" y="33" width="80" height="80" as="geometry" />
        </mxCell>
        <mxCell id="oeZGJ2RFQvOxTjoHCAVU-185" value="Ingreso Contrasena" style="shape=parallelogram;perimeter=parallelogramPerimeter;whiteSpace=wrap;html=1;fixedSize=1;fontSize=12;fontColor=#000000;fillColor=none;gradientColor=#000000;" vertex="1" parent="oeZGJ2RFQvOxTjoHCAVU-199">
          <mxGeometry x="408" y="126" width="120" height="60" as="geometry" />
        </mxCell>
        <mxCell id="oeZGJ2RFQvOxTjoHCAVU-188" value="" style="edgeStyle=elbowEdgeStyle;rounded=0;orthogonalLoop=1;jettySize=auto;html=1;fontSize=12;fontColor=#000000;entryX=0.5;entryY=0;entryDx=0;entryDy=0;exitX=1;exitY=0.5;exitDx=0;exitDy=0;" edge="1" parent="oeZGJ2RFQvOxTjoHCAVU-199" source="oeZGJ2RFQvOxTjoHCAVU-183" target="oeZGJ2RFQvOxTjoHCAVU-185">
          <mxGeometry relative="1" as="geometry">
            <Array as="points">
              <mxPoint x="461" y="100" />
            </Array>
          </mxGeometry>
        </mxCell>
        <mxCell id="oeZGJ2RFQvOxTjoHCAVU-192" value="Pasa Validacion Front?" style="rhombus;whiteSpace=wrap;html=1;fontSize=12;fontColor=#000000;fillColor=none;gradientColor=#000000;" vertex="1" parent="oeZGJ2RFQvOxTjoHCAVU-199">
          <mxGeometry x="301" y="211" width="80" height="80" as="geometry" />
        </mxCell>
        <mxCell id="oeZGJ2RFQvOxTjoHCAVU-194" value="" style="edgeStyle=elbowEdgeStyle;rounded=0;orthogonalLoop=1;jettySize=auto;html=1;fontSize=11;fontColor=#000000;exitX=0.5;exitY=1;exitDx=0;exitDy=0;entryX=0;entryY=0.5;entryDx=0;entryDy=0;" edge="1" parent="oeZGJ2RFQvOxTjoHCAVU-199" source="oeZGJ2RFQvOxTjoHCAVU-182" target="oeZGJ2RFQvOxTjoHCAVU-192">
          <mxGeometry relative="1" as="geometry">
            <mxPoint x="234" y="293" as="targetPoint" />
            <Array as="points">
              <mxPoint x="239" y="227" />
            </Array>
          </mxGeometry>
        </mxCell>
        <mxCell id="oeZGJ2RFQvOxTjoHCAVU-196" value="" style="edgeStyle=elbowEdgeStyle;rounded=0;orthogonalLoop=1;jettySize=auto;html=1;fontSize=11;fontColor=#000000;entryX=1;entryY=0.5;entryDx=0;entryDy=0;" edge="1" parent="oeZGJ2RFQvOxTjoHCAVU-199" source="oeZGJ2RFQvOxTjoHCAVU-185" target="oeZGJ2RFQvOxTjoHCAVU-192">
          <mxGeometry relative="1" as="geometry">
            <mxPoint x="468" y="296" as="targetPoint" />
            <Array as="points">
              <mxPoint x="440" y="232" />
            </Array>
          </mxGeometry>
        </mxCell>
        <mxCell id="oeZGJ2RFQvOxTjoHCAVU-191" value="&lt;h1 style=&quot;font-size: 11px;&quot;&gt;Validaciones:&lt;/h1&gt;&lt;div style=&quot;font-size: 11px;&quot;&gt;Alfanumerico&lt;/div&gt;&lt;div style=&quot;font-size: 11px;&quot;&gt;Password existente&lt;/div&gt;" style="text;html=1;strokeColor=none;fillColor=none;spacing=5;spacingTop=-20;whiteSpace=wrap;overflow=hidden;rounded=0;fontSize=11;fontColor=#000000;" vertex="1" parent="oeZGJ2RFQvOxTjoHCAVU-199">
          <mxGeometry x="469" y="81" width="125" height="68" as="geometry" />
        </mxCell>
        <mxCell id="oeZGJ2RFQvOxTjoHCAVU-207" value="&lt;h1 style=&quot;font-size: 10px;&quot;&gt;Request:&lt;/h1&gt;&lt;div style=&quot;font-size: 10px;&quot;&gt;Referencia a la trama:&lt;/div&gt;&lt;div style=&quot;font-size: 10px;&quot;&gt;Metodo(parametros)&lt;/div&gt;" style="text;html=1;strokeColor=none;fillColor=none;spacing=5;spacingTop=-20;whiteSpace=wrap;overflow=hidden;rounded=0;fontSize=10;fontColor=#0000FF;" vertex="1" parent="oeZGJ2RFQvOxTjoHCAVU-199">
          <mxGeometry x="186" y="280" width="135" height="80" as="geometry" />
        </mxCell>
        <mxCell id="oeZGJ2RFQvOxTjoHCAVU-208" value="&lt;h1 style=&quot;font-size: 10px;&quot;&gt;Request:&lt;/h1&gt;&lt;div style=&quot;font-size: 10px;&quot;&gt;Referencia a la trama:&lt;/div&gt;&lt;div style=&quot;font-size: 10px;&quot;&gt;Metodo(parametros)&lt;/div&gt;" style="text;html=1;strokeColor=none;fillColor=none;spacing=5;spacingTop=-20;whiteSpace=wrap;overflow=hidden;rounded=0;fontSize=10;fontColor=#006600;" vertex="1" parent="oeZGJ2RFQvOxTjoHCAVU-199">
          <mxGeometry x="377" y="284" width="135" height="80" as="geometry" />
        </mxCell>
        <mxCell id="oeZGJ2RFQvOxTjoHCAVU-184" value="" style="edgeStyle=elbowEdgeStyle;rounded=0;orthogonalLoop=1;jettySize=auto;html=1;fontSize=12;fontColor=#000000;" edge="1" parent="1" source="oeZGJ2RFQvOxTjoHCAVU-14" target="oeZGJ2RFQvOxTjoHCAVU-183">
          <mxGeometry relative="1" as="geometry" />
        </mxCell>
        <mxCell id="oeZGJ2RFQvOxTjoHCAVU-211" value="" style="edgeStyle=orthogonalEdgeStyle;rounded=0;orthogonalLoop=1;jettySize=auto;html=1;fontSize=11;fontColor=#000000;entryX=0;entryY=0;entryDx=0;entryDy=25;entryPerimeter=0;exitX=0;exitY=1;exitDx=0;exitDy=0;" edge="1" parent="1" source="oeZGJ2RFQvOxTjoHCAVU-192">
          <mxGeometry relative="1" as="geometry">
            <mxPoint x="-761" y="669" as="targetPoint" />
          </mxGeometry>
        </mxCell>
        <mxCell id="oeZGJ2RFQvOxTjoHCAVU-213" value="" style="edgeStyle=orthogonalEdgeStyle;rounded=0;orthogonalLoop=1;jettySize=auto;html=1;fontSize=11;fontColor=#000000;entryX=1;entryY=1;entryDx=0;entryDy=0;exitX=0;exitY=0;exitDx=270;exitDy=20;exitPerimeter=0;" edge="1" parent="1" target="oeZGJ2RFQvOxTjoHCAVU-192">
          <mxGeometry relative="1" as="geometry">
            <mxPoint x="-491" y="664" as="sourcePoint" />
            <mxPoint x="-578" y="572.5" as="targetPoint" />
          </mxGeometry>
        </mxCell>
        <mxCell id="oeZGJ2RFQvOxTjoHCAVU-215" value="" style="edgeStyle=orthogonalEdgeStyle;rounded=0;orthogonalLoop=1;jettySize=auto;html=1;fontSize=11;fontColor=#000000;entryX=0.5;entryY=1;entryDx=0;entryDy=0;" edge="1" parent="1" target="oeZGJ2RFQvOxTjoHCAVU-216">
          <mxGeometry relative="1" as="geometry">
            <mxPoint x="-341" y="488" as="sourcePoint" />
            <mxPoint x="-418" y="476" as="targetPoint" />
          </mxGeometry>
        </mxCell>
      </root>
    </mxGraphModel>
  </diagram>
</mxfile>
